<svg xmlns="http://www.w3.org/2000/svg" width="10" height="10" viewBox="0 0 10 10">
  <g id="Path_15" data-name="Path 15" fill="#f28">
    <path d="M 5 9.5 C 2.51869010925293 9.5 0.5 7.48130989074707 0.5 5 C 0.5 2.51869010925293 2.51869010925293 0.5 5 0.5 C 7.48130989074707 0.5 9.5 2.51869010925293 9.5 5 C 9.5 7.48130989074707 7.48130989074707 9.5 5 9.5 Z" stroke="none"/>
    <path d="M 5 1 C 2.794390201568604 1 1 2.794390201568604 1 5 C 1 7.205610275268555 2.794390201568604 9 5 9 C 7.205610275268555 9 9 7.205610275268555 9 5 C 9 2.794390201568604 7.205610275268555 1 5 1 M 5 0 C 7.761420249938965 0 10 2.238580226898193 10 5 C 10 7.761420249938965 7.761420249938965 10 5 10 C 2.238580226898193 10 0 7.761420249938965 0 5 C 0 2.238580226898193 2.238580226898193 0 5 0 Z" stroke="none" fill="#fff"/>
  </g>
</svg>
